# AST/ASF file generated using VICON BodyLanguage
# -----------------------------------------------
:version 1.10
:name VICON
:units
  mass 1.0
  length 0.45
  angle deg
:documentation
   .ast/.asf automatically generated from VICON data using
   VICON BodyBuilder and BodyLanguage model FoxedUp or BRILLIANT.MOD
:root
   order TX TY TZ RX RY RZ
   axis XYZ
   position 0 0 0  
   orientation 0 0 0 
:bonedata
  begin
     id 1 
     name lhipjoint
     direction 0.702568 -0.596508 0.388042 
     length 2.56661 
     axis 0 0 0  XYZ
  end
  begin
     id 2 
     name lfemur
     direction 0.34202 -0.939693 0  
     length 6.58374  
     axis 0 0 20  XYZ
    dof rx ry rz
    limits (-160.0 20.0)
           (-70.0 70.0)
           (-60.0 70.0)
  end
  begin
     id 3 
     name ltibia
     direction 0.34202 -0.939693 0   
     length 6.62538   
     axis 0 0 20   XYZ
    dof rx
    limits (-10.0 170.0)
  end
  begin
     id 4 
     name lfoot
     direction 0.10455 -0.287249 0.952133   
     length 2.26699   
     axis -90 7.62852e-016 20   XYZ
    dof rx rz
    limits (-45.0 90.0)
           (-70.0 20.0)
  end
  begin
     id 5 
     name ltoes
     direction 1.53572e-011 -4.22322e-011 1   
     length 1.12949   
     axis -90 7.62852e-016 20   XYZ
    dof rx
    limits (-90.0 20.0)
  end
  begin
     id 6 
     name rhipjoint
     direction -0.728055 -0.574632 0.373811   
     length 2.66432  
     axis 0 0 0  XYZ 
  end
  begin
     id 7 
     name rfemur
     direction -0.34202 -0.939693 0   
     length 6.66732   
     axis 0 0 -20   XYZ
    dof rx ry rz
    limits (-160.0 20.0)
           (-70.0 70.0)
           (-70.0 60.0)
  end
  begin
     id 8 
     name rtibia
     direction -0.34202 -0.939693 0   
     length 6.59288   
     axis 0 0 -20   XYZ
    dof rx
    limits (-10.0 170.0)
 end
 begin
     id 9 
     name rfoot
     direction -0.119193 -0.327479 0.93731   
     length 2.38061  
     axis -90 -7.62852e-016 -20   XYZ
    dof rx rz
    limits (-45.0 90.0)
           (-20.0 70.0)
  end
  begin
     id 10 
     name rtoes
     direction -1.53547e-011 -4.21827e-011 1   
     length 1.17899   
     axis -90 -7.62852e-016 -20   XYZ
    dof rx
    limits (-90.0 20.0)
  end
  begin
     id 11 
     name lowerback
     direction -0.000416114 0.999912 -0.0132284   
     length 2.12109   
     axis 0 0 0   XYZ
    dof rx ry rz
    limits (-20.0 45.0)
           (-30.0 30.0)
           (-30.0 30.0)
  end
  begin
     id 12 
     name upperback
     direction -0.00136371 0.99809 0.0617608   
     length 2.10067   
     axis 0 0 0   XYZ
    dof rx ry rz
    limits (-20.0 45.0)
           (-30.0 30.0)
           (-30.0 30.0)
  end
  begin
     id 13 
     name thorax
     direction -3.43026e-005 0.997776 0.0666515   
     length 2.10618   
     axis 0 0 0   XYZ
    dof rx ry rz
    limits (-20.0 45.0)
           (-30.0 30.0)
           (-30.0 30.0)
  end
  begin
     id 14 
     name lowerneck
     direction 0.0398646 0.998418 0.0396592   
     length 1.83817   
     axis 0 0 0   XYZ
    dof rx ry rz
    limits (-20.0 45.0)
           (-30.0 30.0)
           (-30.0 30.0)
  end
  begin
     id 15 
     name upperneck
     direction -0.0367268 0.961527 -0.272244   
     length 1.81975   
     axis 0 0 0   XYZ
    dof rx ry rz
    limits (-20.0 45.0)
           (-30.0 30.0)
           (-30.0 30.0)
  end
  begin
     id 16
     name head
     direction -0.0182665 0.99536 -0.0944669  
     length 1.86026  
     axis 0 0 0   XYZ
    dof rx ry rz
    limits (-20.0 45.0)
           (-30.0 30.0)
           (-30.0 30.0)
  end
  begin
     id 17 
     name lclavicle
     direction 0.924239 0.361045 0.124212  
     length 3.26878  
     axis 0 0 0   XYZ
    dof ry rz
    limits (-20.0 10.0)
           (0.0 20.0)
  end
  begin
     id 18 
     name lhumerus
     direction 1 -4.48968e-011 -2.56583e-027   
     length 4.58538   
     axis 180 -30 -90   XYZ
    dof rx ry rz
    limits (-60.0 90.0)
           (-90.0 90.0)
           (-90.0 90.0)
  end
  begin
     id 19
     name lradius
     direction 1 -4.4898e-011 -5.50375e-027   
     length 2.68935   
     axis 180 -30 -90   XYZ
    dof rx
    limits (-10.0 170.0)
  end
  begin
     id 20
     name lwrist
     direction 1 -4.48939e-011 -1.48955e-026   
     length 1.34468   
     axis 9.0955e-015 90 90   XYZ
    dof ry
    limits (-180.0 0.0)
 end
  begin
     id 21 
     name lhand
     direction 1 -4.48936e-011 -2.97907e-026   
     length 0.585058   
     axis 1.90115e-014 90 90   XYZ
    dof rx rz
    limits (-90.0 90.0)
           (-45.0 45.0)
  end
  begin
     id 22 
     name lfingers
     direction 1 -4.49082e-011 -5.96235e-026   
     length 0.471689   
     axis 3.80223e-014 90 90   XYZ
    dof rx
    limits (0.0 90.0)
  end
  begin
     id 23
     name lthumb
     direction 0.707107 -6.3489e-011 0.707107   
     length 0.677253   
     axis -90 45 -3.84942e-014   XYZ
    dof rx rz
    limits (-45.0 45.0)
           (-45.0 45.0)
  end
  begin
     id 24 
     name rclavicle
     direction -0.923098 0.371783 0.0983239   
     length 3.19656  
     axis 0 0 0   XYZ 
    dof ry rz
    limits (-10.0 20.0)
           (-20.0 0.0)
  end
  begin
     id 25 
     name rhumerus
     direction -1 -4.48976e-011 -2.5492e-027  
     length 4.4745   
     axis 180 30 90   XYZ
    dof rx ry rz
    limits (-90.0 60.0)
           (-90.0 90.0)
           (-90.0 90.0)
  end
  begin
     id 26 
     name rradius
     direction -1 -4.48941e-011 -4.36555e-027   
     length 2.93896   
     axis 180 30 90   XYZ
    dof rx
    limits (-10.0 170.0)
  end
  begin
     id 27 
     name rwrist
     direction -1 -4.49044e-011 -1.49032e-026   
     length 1.46948   
     axis 9.0955e-015 -90 -90   XYZ
    dof ry
    limits (-180.0 0.0)
  end
  begin
     id 28
     name rhand
     direction -1 -4.48826e-011 -2.97749e-026   
     length 0.405092   
     axis 1.90115e-014 -90 -90   XYZ
    dof rx rz
    limits (-90.0 90.0)
           (-45.0 45.0)
  end
  begin
     id 29
     name rfingers
     direction -1 -4.49209e-011 -5.96602e-026   
     length 0.326596   
     axis 3.80223e-014 -90 -90   XYZ
    dof rx
    limits (0.0 90.0)
  end
  begin
     id 30
     name rthumb
     direction -0.707107 -6.34776e-011 0.707107   
     length 0.468928   
     axis -90 -45 3.84942e-014   XYZ
    dof rx rz
    limits (-45.0 45.0)
           (-45.0 45.0)
  end
:hierarchy
  begin
    root lhipjoint rhipjoint lowerback
    lhipjoint lfemur
    lfemur ltibia
    ltibia lfoot
    lfoot ltoes
    rhipjoint rfemur
    rfemur rtibia
    rtibia rfoot
    rfoot rtoes
    lowerback upperback
    upperback thorax
    thorax lowerneck lclavicle rclavicle
    lowerneck upperneck
    upperneck head
    lclavicle lhumerus
    lhumerus lradius
    lradius lwrist
    lwrist lhand lthumb
    lhand lfingers
    rclavicle rhumerus
    rhumerus rradius
    rradius rwrist
    rwrist rhand rthumb
    rhand rfingers
  end

#!OML:ASF H:\Punching\Project 1\Capture day 1\Session 1\female.ASF
:FULLY-SPECIFIED
:DEGREES
682
root 0.809074 15.5056 3.42524 -27.211 33.7514 -12.8517
lowerback 7.53141 -1.1132 0.786367
upperback 3.31848 -1.19569 8.30904
thorax -0.607321 -0.600328 8.39773
lowerneck -2.08995 4.54028 23.8904
upperneck 39.7673 4.87953 -2.58341
head 15.3851 5.73103 -4.43896
rclavicle 2.32578e-014 -1.59028e-015
rhumerus -20.1234 1.98893 -62.3613
rradius 129.768
rwrist -14.1349
rhand -34.4717 13.368
rfingers 7.12502
rthumb -7.63484 -16.4742
lclavicle 2.32578e-014 -1.59028e-015
lhumerus -9.18923 -38.6684 86.4748
lradius 133.118
lwrist -1.91849
lhand -28.7291 -0.222044
lfingers 7.12502
lthumb -2.09009 29.7475
rfemur -106.248 -26.6754 7.73522
rtibia 82.0512
rfoot 15.5859 -0.386131
rtoes -31.3255
lfemur 13.6249 -11.7525 -23.1096
ltibia 25.3078
lfoot -11.2817 -5.19371
ltoes 26.3908
683
root 0.799113 15.4737 3.38935 -26.6782 33.2221 -12.5082
lowerback 7.72993 -1.01086 1.03232
upperback 3.33429 -1.03038 8.29216
thorax -0.729869 -0.512199 8.22733
lowerneck -2.04932 4.68495 23.8059
upperneck 39.5764 5.19924 -2.82932
head 15.3254 5.80603 -4.48939
rclavicle -3.91606e-014 2.54444e-014
rhumerus -19.6048 2.29883 -62.5626
rradius 129.741
rwrist -14.1363
rhand -34.4393 13.6348
rfingers 7.12502
rthumb -7.60361 -16.2085
lclavicle -3.91606e-014 2.54444e-014
lhumerus -8.95935 -38.3444 85.8873
lradius 133.127
lwrist -1.92904
lhand -28.7537 -0.273854
lfingers 7.12502
lthumb -2.11385 29.6954
rfemur -107.148 -26.0822 9.42267
rtibia 86.5999
rfoot 14.3007 0.503406
rtoes -31.2711
lfemur 12.8757 -11.6566 -23.3164
ltibia 26.0384
lfoot -11.9101 -4.60793
ltoes 26.4115
684
root 0.787683 15.4415 3.34965 -26.1452 32.611 -12.1718
lowerback 7.97244 -0.899871 1.28616
upperback 3.35102 -0.848912 8.28808
thorax -0.876159 -0.415909 8.06552
lowerneck -2.00747 4.84247 23.7156
upperneck 39.3775 5.54306 -3.09151
head 15.2669 5.88849 -4.542
rclavicle -2.5842e-015 5.24792e-014
rhumerus -19.0646 2.65286 -62.7468
rradius 129.702
rwrist -14.0806
rhand -34.4421 13.7907
rfingers 7.12502
rthumb -7.60625 -16.0525
lclavicle -2.5842e-015 5.24792e-014
lhumerus -8.75854 -37.9707 85.2913
lradius 133.149
lwrist -1.91268
lhand -28.7636 -0.328816
lfingers 7.12502
lthumb -2.12342 29.6404
rfemur -107.808 -25.4079 11.0166
rtibia 91.1116
rfoot 12.9236 1.15694
rtoes -30.8511
lfemur 12.0816 -11.528 -23.4914
ltibia 26.8207
lfoot -12.5283 -4.00194
ltoes 26.3673
685
root 0.775029 15.4091 3.30617 -25.5919 31.9364 -11.8153
lowerback 8.25229 -0.780566 1.52343
upperback 3.36347 -0.653906 8.28326
thorax -1.04732 -0.313121 7.91131
lowerneck -1.9648 5.01282 23.6236
upperneck 39.1767 5.90671 -3.35966
head 15.2127 5.97904 -4.59336
rclavicle -9.36276e-014 -4.45278e-014
rhumerus -18.5038 3.05633 -62.9235
rradius 129.654
rwrist -13.9719
rhand -34.478 13.803
rfingers 7.12502
rthumb -7.64092 -16.039
lclavicle -9.36276e-014 -4.45278e-014
lhumerus -8.58854 -37.5467 84.6804
lradius 133.183
lwrist -1.88886
lhand -28.771 -0.415567
lfingers 7.12502
lthumb -2.13051 29.5535
rfemur -108.251 -24.6779 12.5279
rtibia 95.5651
rfoot 11.5062 1.65218
rtoes -30.021
lfemur 11.2495 -11.3657 -23.6653
ltibia 27.6228
lfoot -13.1192 -3.36712
ltoes 26.2527
686
root 0.761448 15.377 3.2589 -25.0055 31.2123 -11.431
lowerback 8.54857 -0.653273 1.73062
upperback 3.37355 -0.448536 8.27487
thorax -1.22923 -0.205859 7.76883
lowerneck -1.92693 5.19708 23.5322
upperneck 38.9717 6.28932 -3.63268
head 15.1631 6.07749 -4.64321
rclavicle 4.75095e-014 2.06736e-014
rhumerus -17.9168 3.49913 -63.0903
rradius 129.592
rwrist -13.8245
rhand -34.5405 13.7184
rfingers 7.12502
rthumb -7.7013 -16.1214
lclavicle 4.75095e-014 2.06736e-014
lhumerus -8.42571 -37.0904 84.0465
lradius 133.301
lwrist -1.80353
lhand -28.6383 -0.24401
lfingers 7.12502
lthumb -2.0024 29.7263
rfemur -108.486 -23.9168 13.9641
rtibia 99.9324
rfoot 10.1093 2.05867
rtoes -28.825
lfemur 10.3801 -11.1696 -23.8489
ltibia 28.4162
lfoot -13.6689 -2.70462
ltoes 26.0818
687
root 0.747321 15.3458 3.20761 -24.383 30.4566 -11.0245
lowerback 8.85596 -0.523752 1.917
upperback 3.36747 -0.239716 8.25213
thorax -1.43286 -0.0973005 7.62126
lowerneck -1.89113 5.39582 23.4584
upperneck 38.7706 6.69061 -3.91013
head 15.1232 6.18711 -4.69404
rclavicle 3.45885e-014 3.81667e-014
rhumerus -17.3248 3.97535 -63.2606
rradius 129.518
rwrist -13.6704
rhand -34.6107 13.5855
rfingers 7.12502
rthumb -7.76902 -16.2518
lclavicle 3.45885e-014 3.81667e-014
lhumerus -8.28794 -36.6392 83.3881
lradius 133.463
lwrist -1.78976
lhand -28.5095 0.133107
lfingers 7.12502
lthumb -1.87803 30.1046
rfemur -108.512 -23.1562 15.3465
rtibia 104.186
rfoot 8.75838 2.39836
rtoes -27.2811
lfemur 9.46924 -10.9503 -24.0437
ltibia 29.1869
lfoot -14.1657 -2.0232
ltoes 25.9043
688
root 0.733087 15.3163 3.15234 -23.7083 29.6946 -10.581
lowerback 9.15368 -0.393254 2.06953
upperback 3.34341 -0.0322886 8.2051
thorax -1.6481 0.00982324 7.46527
lowerneck -1.84036 5.59859 23.4062
upperneck 38.5618 7.09755 -4.18714
head 15.0813 6.30275 -4.74653
rclavicle 1.80894e-014 -2.70347e-014
rhumerus -16.7307 4.4669 -63.4362
rradius 129.433
rwrist -13.5397
rhand -34.6717 13.457
rfingers 7.12502
rthumb -7.82795 -16.3781
lclavicle 1.80894e-014 -2.70347e-014
lhumerus -8.14909 -36.1415 82.6891
lradius 133.647
lwrist -1.73596
lhand -28.337 0.474107
lfingers 7.12502
lthumb -1.71137 30.447
rfemur -108.33 -22.4341 16.6561
rtibia 108.301
rfoot 7.49376 2.69842
rtoes -25.4044
lfemur 8.50707 -10.7107 -24.2689
ltibia 29.9294
lfoot -14.6057 -1.33508
ltoes 25.7563
689
root 0.719711 15.2892 3.09312 -22.9326 28.9458 -10.1192
lowerback 9.36826 -0.264631 2.21333
upperback 3.28325 0.167448 8.12819
thorax -1.85269 0.112317 7.27993
lowerneck -1.78531 5.80176 23.3795
upperneck 38.35 7.49927 -4.45793
head 15.0406 6.42118 -4.80017
rclavicle 3.10104e-014 1.08139e-013
rhumerus -16.1482 4.94965 -63.6214
rradius 129.338
rwrist -13.4502
rhand -34.7121 13.4095
rfingers 7.12502
rthumb -7.86689 -16.4241
lclavicle 3.10104e-014 1.08139e-013
lhumerus -8.00334 -35.6228 81.9426
lradius 133.822
lwrist -1.6853
lhand -28.2026 0.722312
lfingers 7.12502
lthumb -1.58158 30.6962
rfemur -107.998 -21.7845 17.9333
rtibia 112.254
rfoot 6.33109 2.96316
rtoes -23.4331
lfemur 7.42319 -10.4635 -24.5019
ltibia 30.651
lfoot -14.9857 -0.660862
ltoes 25.6457
690
root 0.707984 15.2647 3.03058 -22.0117 28.231 -9.63501
lowerback 9.44095 -0.145754 2.33609
upperback 3.17807 0.343645 8.02201
thorax -2.0217 0.201937 7.07484
lowerneck -1.71616 6.00487 23.3745
upperneck 38.1313 7.89926 -4.72566
head 14.9972 6.54283 -4.85553
rclavicle -2.84262e-014 7.95139e-015
rhumerus -15.5584 5.43399 -63.8144
rradius 129.23
rwrist -13.406
rhand -34.7259 13.405
rfingers 7.12502
rthumb -7.88019 -16.4281
lclavicle -2.84262e-014 7.95139e-015
lhumerus -7.84199 -35.0492 81.149
lradius 133.978
lwrist -1.58962
lhand -28.096 0.765119
lfingers 7.12502
lthumb -1.47866 30.7397
rfemur -107.556 -21.2331 19.1753
rtibia 116.025
rfoot 5.25432 3.17275
rtoes -21.4391
lfemur 6.16648 -10.2181 -24.7436
ltibia 31.3613
lfoot -15.3043 -0.0197633
ltoes 25.5808
691
root 0.698464 15.2431 2.96539 -20.9133 27.56 -9.1318
lowerback 9.33178 -0.0368702 2.44672
upperback 3.01434 0.494204 7.88108
thorax -2.14693 0.27774 6.83994
lowerneck -1.62913 6.20118 23.3959
upperneck 37.9059 8.28749 -4.98878
head 14.949 6.66435 -4.91435
rclavicle -3.06128e-014 -4.6118e-014
rhumerus -14.9781 5.91777 -64.024
rradius 129.116
rwrist -13.3849
rhand -34.7251 13.4151
rfingers 7.12502
rthumb -7.8795 -16.4181
lclavicle -3.06128e-014 -4.6118e-014
lhumerus -7.67409 -34.4428 80.31
lradius 134.086
lwrist -1.49178
lhand -28.0898 0.591509
lfingers 7.12502
lthumb -1.47263 30.5662
rfemur -107.035 -20.7905 20.3823
rtibia 119.595
rfoot 4.27784 3.32212
rtoes -19.5324
lfemur 4.69458 -9.98265 -24.9871
ltibia 32.0736
lfoot -15.564 0.571666
ltoes 25.5537
692
root 0.691196 15.2245 2.89843 -19.6302 26.9287 -8.61258
lowerback 9.03136 0.0646473 2.54715
upperback 2.79127 0.622171 7.70781
thorax -2.22408 0.34136 6.57774
lowerneck -1.54138 6.39288 23.4338
upperneck 37.6786 8.66185 -5.24171
head 14.9007 6.78396 -4.97269
rclavicle 1.15295e-014 -9.54166e-015
rhumerus -14.4051 6.39678 -64.2463
rradius 128.996
rwrist -13.3691
rhand -34.7224 13.4373
rfingers 7.12502
rthumb -7.87685 -16.396
lclavicle 1.15295e-014 -9.54166e-015
lhumerus -7.49379 -33.819 79.4299
lradius 134.196
lwrist -1.32368
lhand -28.0769 0.370454
lfingers 7.12502
lthumb -1.46016 30.3452
rfemur -106.429 -20.4444 21.5368
rtibia 122.936
rfoot 3.41477 3.45117
rtoes -17.8181
lfemur 3.00176 -9.75231 -25.2234
ltibia 32.7856
lfoot -15.7672 1.0984
ltoes 25.5621
693
root 0.68584 15.209 2.83029 -18.1843 26.3147 -8.08148
lowerback 8.57048 0.162813 2.64139
upperback 2.50645 0.736007 7.5052
thorax -2.27302 0.397317 6.28988
lowerneck -1.44172 6.57822 23.4898
upperneck 37.4532 9.02385 -5.48615
head 14.8519 6.90291 -5.03169
rclavicle 1.53064e-014 1.43125e-014
rhumerus -13.8534 6.88264 -64.4849
rradius 128.879
rwrist -13.3456
rhand -34.721 13.4544
rfingers 7.12502
rthumb -7.87552 -16.3789
lclavicle 1.53064e-014 1.43125e-014
lhumerus -7.32467 -33.1976 78.5224
lradius 134.304
lwrist -1.12756
lhand -28.0935 0.130238
lfingers 7.12502
lthumb -1.47618 30.1049
rfemur -105.694 -20.1572 22.6141
rtibia 126.012
rfoot 2.68462 3.58121
rtoes -16.3203
lfemur 1.11709 -9.51445 -25.4457
ltibia 33.4876
lfoot -15.9162 1.55758
ltoes 25.5987
694
root 0.681775 15.1964 2.76168 -16.614 25.7073 -7.5288
lowerback 7.99013 0.261543 2.70874
upperback 2.18036 0.841314 7.27898
thorax -2.29542 0.448495 5.99507
lowerneck -1.34563 6.76158 23.5514
upperneck 37.2282 9.37723 -5.72255
head 14.8049 7.02039 -5.08867
rclavicle 8.64713e-015 4.77083e-015
rhumerus -13.3077 7.36938 -64.7284
rradius 128.764
rwrist -13.313
rhand -34.7186 13.4803
rfingers 7.12502
rthumb -7.8732 -16.3531
lclavicle 8.64713e-015 4.77083e-015
lhumerus -7.15097 -32.587 77.59
lradius 134.478
lwrist -0.832631
lhand -28.003 0.143953
lfingers 7.12502
lthumb -1.38884 30.1192
rfemur -104.781 -19.907 23.5635
rtibia 128.8
rfoot 2.10682 3.7443
rtoes -15.0582
lfemur -0.898287 -9.25715 -25.6687
ltibia 34.156
lfoot -16.011 1.94992
ltoes 25.6619
695
root 0.678315 15.1872 2.69268 -14.9684 25.0734 -6.9811
lowerback 7.33846 0.36694 2.77069
upperback 1.82133 0.951977 7.03973
thorax -2.31009 0.502052 5.69189
lowerneck -1.27768 6.95196 23.6137
upperneck 37.0179 9.72996 -5.94976
head 14.773 7.13955 -5.14041
rclavicle -1.12313e-014 -3.65764e-014
rhumerus -12.7684 7.85522 -64.9693
rradius 128.654
rwrist -13.2707
rhand -34.7129 13.5115
rfingers 7.12502
rthumb -7.86767 -16.3221
lclavicle -1.12313e-014 -3.65764e-014
lhumerus -6.98095 -32.0379 76.642
lradius 134.686
lwrist -0.594835
lhand -27.9464 0.485076
lfingers 7.12502
lthumb -1.33414 30.4607
rfemur -103.621 -19.6379 24.3745
rtibia 131.26
rfoot 1.68044 3.93389
rtoes -14.0361
lfemur -2.99147 -8.96319 -25.8681
ltibia 34.7691
lfoot -16.0517 2.28413
ltoes 25.7455
696
root 0.674966 15.1813 2.62351 -13.3005 24.4 -6.43275
lowerback 6.68009 0.48557 2.82609
upperback 1.43946 1.08073 6.78253
thorax -2.34311 0.564364 5.37509
lowerneck -1.21181 7.13736 23.6858
upperneck 36.8093 10.0704 -6.16949
head 14.7425 7.25622 -5.19165
rclavicle 4.34344e-014 2.54444e-014
rhumerus -12.2501 8.32999 -65.2099
rradius 128.558
rwrist -13.2163
rhand -34.7011 13.5288
rfingers 7.12502
rthumb -7.85626 -16.3052
lclavicle 4.34344e-014 2.54444e-014
lhumerus -6.80755 -31.4995 75.6736
lradius 134.901
lwrist -0.321673
lhand -27.885 0.879778
lfingers 7.12502
lthumb -1.27481 30.8557
rfemur -102.161 -19.3264 25.001
rtibia 133.374
rfoot 1.40033 4.15312
rtoes -13.1818
lfemur -5.08668 -8.62231 -26.063
ltibia 35.3029
lfoot -16.0395 2.57897
ltoes 25.8503
